<?xml version="1.0" encoding="UTF-8" standalone="no"?>
<!-- Created with Inkscape (http://www.inkscape.org/) -->

<svg
   width="61.648792mm"
   height="14.384318mm"
   viewBox="0 0 61.648793 14.384318"
   version="1.1"
   id="svg135"
   xml:space="preserve"
   inkscape:version="1.2.2 (1:1.2.2+202305151914+b0a8486541)"
   sodipodi:docname="dibujo.svg"
   inkscape:export-filename="persontechnology.svg"
   inkscape:export-xdpi="96"
   inkscape:export-ydpi="96"
   xmlns:inkscape="http://www.inkscape.org/namespaces/inkscape"
   xmlns:sodipodi="http://sodipodi.sourceforge.net/DTD/sodipodi-0.dtd"
   xmlns="http://www.w3.org/2000/svg"
   xmlns:svg="http://www.w3.org/2000/svg"><sodipodi:namedview
     id="namedview137"
     pagecolor="#ffffff"
     bordercolor="#000000"
     borderopacity="0.25"
     inkscape:showpageshadow="2"
     inkscape:pageopacity="0.0"
     inkscape:pagecheckerboard="0"
     inkscape:deskcolor="#d1d1d1"
     inkscape:document-units="mm"
     showgrid="false"
     inkscape:zoom="1.2296198"
     inkscape:cx="140.6939"
     inkscape:cy="-20.738118"
     inkscape:window-width="1366"
     inkscape:window-height="654"
     inkscape:window-x="0"
     inkscape:window-y="27"
     inkscape:window-maximized="1"
     inkscape:current-layer="layer1" /><defs
     id="defs132" /><g
     inkscape:label="Capa 1"
     inkscape:groupmode="layer"
     id="layer1"
     transform="translate(-10.94165,-5.4682216)"><g
       id="g1246"
       transform="matrix(0.32771569,0,0,0.32202832,9.4415113,3.7072994)"
       style="fill:#000080"><g
         id="g603"
         style="fill:#000080;fill-opacity:1"
         transform="matrix(0.10745819,0,0,0.11160968,-0.81589058,-0.07632112)"><path
           d="M 391.01082,108.28445 C 353.30592,70.491496 303.16839,49.677973 249.83656,49.677973 c -53.33183,0 -103.46933,20.813523 -141.17424,58.606477 -37.704904,37.79296 -58.471145,88.04574 -58.471145,141.50101 0,53.45526 20.765461,103.70882 58.471145,141.501 37.70491,37.79296 87.84241,58.60648 141.17424,58.60648 53.33183,0 103.46936,-20.81352 141.17426,-58.60648 37.70567,-37.79218 58.47114,-88.04574 58.47114,-141.501 0,-53.45527 -20.76547,-103.70882 -58.47114,-141.50101 z m -8.73138,274.25044 c -35.37311,35.4542 -82.40908,54.98032 -132.44288,54.98032 -50.03378,0 -97.06976,-19.52612 -132.44287,-54.98032 -35.373112,-35.4542 -54.853356,-82.59984 -54.853356,-132.74943 0,-50.1496 19.481023,-97.29445 54.853356,-132.74944 35.37233,-35.454971 82.40909,-54.980303 132.44287,-54.980303 50.0338,0 97.06977,19.526112 132.44288,54.980303 35.37312,35.4542 54.85335,82.59984 54.85335,132.74944 0,50.14959 -19.48101,97.29443 -54.85335,132.74943 z"
           id="path241"
           style="fill:#000080;fill-opacity:1;stroke-width:0.780768" /><g
           transform="matrix(0.08849365,0,0,-0.08936993,50.947311,450.82055)"
           fill="#000000"
           stroke="none"
           id="g580"
           style="fill:#000080;fill-opacity:1"><path
             d="m 2766,3723 c 88,-128 124,-242 124,-395 0,-187 -65,-349 -194,-482 -40,-41 -46,-52 -46,-90 0,-48 -24,-137 -48,-175 -8,-14 -35,-47 -60,-72 l -44,-46 17,-49 c 42,-121 27,-333 -32,-482 -38,-93 -146,-252 -243,-357 -96,-104 -145,-194 -159,-295 -5,-36 -8,-66 -6,-68 1,-2 15,19 30,45 58,100 139,187 235,253 68,46 128,72 245,105 186,53 382,172 518,314 86,90 151,179 121,166 -126,-55 -320,-91 -409,-76 -40,7 -40,7 21,14 75,8 174,43 251,88 93,55 221,190 271,286 48,93 82,212 82,287 v 51 l -27,-40 c -102,-152 -275,-280 -438,-324 -47,-12 -39,-5 55,49 78,44 205,176 248,257 96,181 115,388 53,564 l -20,54 v -70 c -2,-131 -41,-243 -122,-349 -32,-43 -65,-72 -155,-138 -6,-4 -27,-14 -47,-23 l -36,-15 49,78 c 75,118 102,203 107,347 6,142 -10,223 -63,331 -60,123 -184,252 -297,310 -26,14 -24,10 19,-53 z"
             id="path574"
             style="fill:#000080;fill-opacity:1" /><path
             d="m 1625,3726 c -75,-50 -175,-162 -218,-243 -129,-247 -92,-557 91,-755 31,-33 48,-58 39,-58 -8,0 -46,16 -85,35 -174,87 -285,251 -301,445 l -7,85 -15,-45 c -9,-31 -14,-90 -14,-185 0,-127 3,-147 28,-220 68,-192 217,-352 402,-431 56,-23 57,-25 20,-19 -148,24 -296,104 -418,226 l -87,88 6,-42 c 31,-212 175,-414 374,-525 76,-43 218,-82 299,-83 55,0 62,-2 41,-11 -36,-14 -214,-14 -284,1 -32,7 -90,26 -127,41 -38,15 -69,24 -69,20 0,-18 133,-150 190,-188 78,-52 202,-100 280,-109 33,-3 60,-10 60,-15 0,-5 -7,-23 -17,-41 -46,-90 -55,-207 -23,-311 12,-36 22,-66 24,-66 2,0 9,30 16,68 14,82 39,140 87,203 50,66 66,68 32,6 -51,-97 -71,-173 -76,-303 -7,-147 10,-235 66,-350 106,-219 287,-359 526,-409 77,-16 235,-21 235,-7 0,4 -23,18 -51,31 -28,14 -73,45 -100,71 -53,50 -55,49 -50,-28 l 3,-32 -54,20 c -226,89 -387,298 -418,546 -23,182 29,341 172,524 101,130 132,176 177,267 52,104 73,189 74,293 1,183 -63,323 -237,520 -126,141 -146,202 -105,323 21,64 46,105 34,56 -11,-44 17,-94 72,-125 72,-41 83,-53 83,-91 0,-79 50,-137 96,-112 13,7 24,17 24,22 0,6 9,2 19,-7 17,-15 139,-41 149,-31 6,6 -31,22 -69,29 -46,8 -68,32 -99,108 -14,34 -31,63 -37,66 -9,2 -8,-4 2,-25 19,-36 19,-72 0,-80 -22,-8 -27,0 -32,51 -4,30 -13,52 -29,67 -27,25 -32,59 -9,59 8,0 15,-4 15,-9 0,-4 27,-25 59,-45 62,-38 81,-67 61,-91 -17,-20 6,-20 40,0 34,20 43,18 37,-5 -8,-30 18,-25 42,9 33,45 27,64 -29,99 -49,30 -54,38 -51,75 1,9 -7,30 -19,45 -12,15 -31,42 -43,61 -16,24 -60,55 -156,110 -149,84 -215,141 -251,216 -18,36 -26,45 -28,31 -8,-40 11,-108 44,-157 19,-29 33,-53 32,-54 -2,-1 -25,-10 -52,-19 -50,-19 -167,-102 -174,-123 -2,-9 10,-11 50,-6 l 53,6 -45,-34 c -40,-31 -116,-127 -107,-135 2,-2 18,3 36,12 18,9 34,14 37,12 2,-3 -5,-25 -16,-49 -20,-46 -27,-139 -10,-139 6,0 10,6 10,14 0,8 12,28 26,43 l 26,28 -7,-25 c -3,-14 -8,-70 -11,-125 l -4,-100 25,54 c 14,30 27,52 29,50 2,-2 0,-28 -5,-57 -7,-37 -7,-70 1,-108 11,-52 30,-66 30,-21 1,51 17,46 23,-6 3,-30 14,-75 25,-98 20,-43 20,-43 21,-14 2,38 21,72 21,36 0,-31 21,-101 30,-101 5,0 11,12 15,27 6,24 8,25 16,11 5,-10 7,-28 3,-42 -5,-22 -8,-23 -42,-14 -97,27 -196,107 -240,194 -22,45 -42,129 -42,180 0,30 -10,47 -61,102 -79,88 -144,218 -165,332 -33,173 9,373 108,513 26,36 13,34 -47,-7 z m 774,-617 c 13,-17 21,-33 18,-35 -7,-8 -57,37 -57,52 0,23 14,16 39,-17 z m 121,-119 c 0,-5 -4,-10 -10,-10 -5,0 -10,5 -10,10 0,6 5,10 10,10 6,0 10,-4 10,-10 z m -113,-168 c -16,-20 -28,7 -15,32 11,20 11,20 18,1 4,-11 3,-26 -3,-33 z"
             id="path576"
             style="fill:#000080;fill-opacity:1" /><path
             d="m 2210,3452 c 0,-30 33,-112 52,-129 28,-25 138,-84 138,-74 0,4 -29,33 -65,65 -36,31 -77,77 -91,102 -25,43 -34,52 -34,36 z"
             id="path578"
             style="fill:#000080;fill-opacity:1" /></g></g><g
         aria-label="PERSON TECHNOLOGY"
         transform="scale(0.72542646,1.3784995)"
         id="text1045"
         style="font-size:17.8951px;font-family:Ubuntu;-inkscape-font-specification:'Ubuntu, @wght=800';font-variation-settings:'wght' 800;fill:#000080;stroke-width:1.28556"><path
           d="M 71.162831,22.820044 V 10.597691 q 0.787385,-0.196847 1.485294,-0.268427 0.697908,-0.08948 1.449503,-0.08948 2.129517,0 3.292698,1.091601 1.181077,1.073706 1.181077,3.042167 0,1.252657 -0.536853,2.201097 -0.536853,0.930545 -1.521084,1.449503 -0.98423,0.518958 -2.326363,0.518958 h -0.483168 v 4.276929 z m 2.541104,-6.424341 h 0.447378 q 0.626328,0 1.002126,-0.214741 0.393692,-0.214742 0.572643,-0.662119 0.196846,-0.447378 0.196846,-1.145286 0,-0.662119 -0.196846,-1.091602 -0.178951,-0.429482 -0.554748,-0.644223 -0.375797,-0.214741 -0.966336,-0.214741 -0.125265,0 -0.268426,0.0179 -0.143161,0.01789 -0.232637,0.05368 z"
           id="path1101"
           style="fill:#000080" /><path
           d="M 82.68726,22.820044 V 10.41874 h 6.263285 v 2.129516 h -3.722181 v 2.737951 h 3.435859 v 2.057936 h -3.435859 v 3.346384 h 4.097978 v 2.129517 z"
           id="path1103"
           style="fill:#000080" /><path
           d="M 93.531705,22.820044 V 10.615586 q 0.680014,-0.178951 1.377923,-0.268427 0.715804,-0.10737 1.556873,-0.10737 2.183202,0 3.310594,1.02002 1.127395,1.002126 1.127395,2.988482 0,0.98423 -0.3937,1.8253 -0.39369,0.84107 -1.181073,1.521083 0.357902,0.590539 0.680013,1.234762 0.32211,0.644224 0.60843,1.324238 0.30422,0.662118 0.53686,1.342132 0.23263,0.680014 0.39369,1.324238 h -2.541105 q -0.268426,-0.87686 -0.590538,-1.700035 -0.322112,-0.84107 -0.662119,-1.574769 -0.340006,-0.733699 -0.697908,-1.288447 -0.07158,0 -0.286322,0 -0.196846,0 -0.375797,0 h -0.322112 v 4.563251 z m 2.541104,-6.603292 h 0.429482 q 0.590539,0 0.966336,-0.214741 0.393692,-0.232637 0.590538,-0.662119 0.196846,-0.447378 0.196846,-1.091601 0,-0.608434 -0.196846,-1.002126 -0.178951,-0.411587 -0.554748,-0.608433 -0.357902,-0.214741 -0.930545,-0.214741 -0.125266,0 -0.268427,0.0179 -0.14316,0.01789 -0.232636,0.05368 z"
           id="path1105"
           style="fill:#000080" /><path
           d="m 107.36461,23.070575 q -0.80528,0 -1.62845,-0.250531 -0.82318,-0.232637 -1.34213,-0.608434 l 0.76949,-2.093726 q 0.46527,0.375797 1.03791,0.590538 0.57264,0.214741 1.05581,0.214741 0.66212,0 1.05581,-0.340007 0.3937,-0.340007 0.3937,-0.930545 0,-0.465273 -0.19685,-0.84107 -0.17895,-0.393692 -0.60843,-0.787384 -0.42949,-0.393692 -1.18108,-0.87686 -0.7337,-0.501063 -1.21687,-1.020021 -0.48317,-0.518958 -0.7158,-1.109496 -0.23264,-0.590538 -0.23264,-1.270552 0,-1.002126 0.46527,-1.807405 0.46528,-0.80528 1.30635,-1.288447 0.84107,-0.483168 1.95056,-0.483168 0.76949,0 1.44951,0.196846 0.69791,0.178951 1.30634,0.536853 l -0.76949,1.968461 q -0.3579,-0.250531 -0.84107,-0.393692 -0.48317,-0.161056 -0.96634,-0.161056 -0.62632,0 -0.96633,0.304217 -0.34001,0.304216 -0.34001,0.87686 0,0.375797 0.16106,0.662118 0.16105,0.286322 0.59054,0.626329 0.42948,0.340007 1.23476,0.894755 0.82317,0.536853 1.28845,1.145286 0.46527,0.590538 0.66211,1.198972 0.21474,0.590538 0.21474,1.198972 0,1.05581 -0.48316,1.93267 -0.46528,0.87686 -1.34214,1.395818 -0.87686,0.518958 -2.11162,0.518958 z"
           id="path1107"
           style="fill:#000080" /><path
           d="m 120.01646,23.070575 q -1.46739,0 -2.52321,-0.751594 -1.03791,-0.76949 -1.59266,-2.218993 -0.53685,-1.449503 -0.53685,-3.507439 0,-1.538979 0.30421,-2.720055 0.32212,-1.198972 0.91265,-2.022147 0.60844,-0.823174 1.4674,-1.252656 0.85897,-0.429483 1.96846,-0.429483 1.4853,0 2.52321,0.769489 1.03792,0.751595 1.57477,2.201098 0.55475,1.431608 0.55475,3.489544 0,2.040041 -0.55475,3.489545 -0.53685,1.431607 -1.57477,2.201097 -1.03791,0.751594 -2.52321,0.751594 z m 0,-2.218992 q 0.69791,0 1.12739,-0.447378 0.42949,-0.447377 0.62633,-1.377923 0.21474,-0.930545 0.21474,-2.397943 0,-1.485293 -0.21474,-2.415838 -0.19684,-0.930546 -0.62633,-1.377923 -0.42948,-0.447378 -1.12739,-0.447378 -0.68001,0 -1.12739,0.447378 -0.42948,0.447377 -0.64422,1.377923 -0.19685,0.91265 -0.19685,2.380048 0,1.467398 0.19685,2.415838 0.21474,0.930546 0.64422,1.395818 0.44738,0.447378 1.12739,0.447378 z"
           id="path1109"
           style="fill:#000080" /><path
           d="M 130.01984,22.820044 V 10.41874 h 2.05794 q 0.37579,0.626328 0.75159,1.306342 0.39369,0.662118 0.76949,1.360027 0.39369,0.697909 0.7516,1.413713 0.37579,0.697909 0.7158,1.395818 0.34001,0.697909 0.64422,1.377923 V 10.41874 h 2.38005 v 12.401304 h -2.04004 q -0.21474,-0.572644 -0.50106,-1.234762 -0.28632,-0.680014 -0.64423,-1.431608 -0.34,-0.751594 -0.7337,-1.556874 -0.39369,-0.823175 -0.84107,-1.682139 -0.44737,-0.87686 -0.93054,-1.771615 v 7.676998 z"
           id="path1111"
           style="fill:#000080" /><path
           d="M 149.32866,22.820044 V 12.548256 h -2.59479 V 10.41874 h 7.73068 v 2.129516 h -2.59479 v 10.271788 z"
           id="path1113"
           style="fill:#000080" /><path
           d="M 158.83096,22.820044 V 10.41874 h 6.26329 v 2.129516 h -3.72219 v 2.737951 h 3.43586 v 2.057936 h -3.43586 v 3.346384 h 4.09798 v 2.129517 z"
           id="path1115"
           style="fill:#000080" /><path
           d="m 174.0776,23.070575 q -1.61056,0 -2.72006,-0.733699 -1.0916,-0.733699 -1.64635,-2.165307 -0.55474,-1.449503 -0.55474,-3.57902 0,-1.610559 0.30421,-2.809531 0.30422,-1.216867 0.89476,-2.004251 0.60843,-0.805279 1.52108,-1.198972 0.91265,-0.411587 2.12952,-0.411587 0.51896,0 1.00212,0.07158 0.48317,0.07158 0.91265,0.214741 0.42949,0.143161 0.7516,0.340007 l -0.7337,2.129516 q -0.39369,-0.268426 -0.87686,-0.393692 -0.48317,-0.143161 -1.07371,-0.143161 -0.78738,0 -1.27055,0.411588 -0.46527,0.393692 -0.68001,1.324237 -0.19685,0.91265 -0.19685,2.469524 0,1.556874 0.25053,2.487419 0.25053,0.930545 0.80528,1.360027 0.55475,0.411588 1.4674,0.411588 0.55475,0 1.00213,-0.107371 0.46527,-0.107371 0.85896,-0.340007 l 0.66212,2.040041 q -0.50106,0.304217 -1.21687,0.465273 -0.7158,0.161056 -1.59266,0.161056 z"
           id="path1117"
           style="fill:#000080" /><path
           d="M 181.27144,22.820044 V 10.41874 h 2.54111 v 4.885362 h 2.82742 V 10.41874 h 2.54111 v 12.401304 h -2.54111 v -5.36853 h -2.82742 v 5.36853 z"
           id="path1119"
           style="fill:#000080" /><path
           d="M 194.40644,22.820044 V 10.41874 h 2.05793 q 0.3758,0.626328 0.7516,1.306342 0.39369,0.662118 0.76949,1.360027 0.39369,0.697909 0.75159,1.413713 0.3758,0.697909 0.71581,1.395818 0.34,0.697909 0.64422,1.377923 V 10.41874 h 2.38005 v 12.401304 h -2.04004 q -0.21474,-0.572644 -0.50107,-1.234762 -0.28632,-0.680014 -0.64422,-1.431608 -0.34001,-0.751594 -0.7337,-1.556874 -0.39369,-0.823175 -0.84107,-1.682139 -0.44738,-0.87686 -0.93054,-1.771615 v 7.676998 z"
           id="path1121"
           style="fill:#000080" /><path
           d="m 212.06891,23.070575 q -1.4674,0 -2.52321,-0.751594 -1.03792,-0.76949 -1.59267,-2.218993 -0.53685,-1.449503 -0.53685,-3.507439 0,-1.538979 0.30422,-2.720055 0.32211,-1.198972 0.91265,-2.022147 0.60843,-0.823174 1.4674,-1.252656 0.85896,-0.429483 1.96846,-0.429483 1.48529,0 2.52321,0.769489 1.03791,0.751595 1.57477,2.201098 0.55474,1.431608 0.55474,3.489544 0,2.040041 -0.55474,3.489545 -0.53686,1.431607 -1.57477,2.201097 -1.03792,0.751594 -2.52321,0.751594 z m 0,-2.218992 q 0.69791,0 1.12739,-0.447378 0.42948,-0.447377 0.62633,-1.377923 0.21474,-0.930545 0.21474,-2.397943 0,-1.485293 -0.21474,-2.415838 -0.19685,-0.930546 -0.62633,-1.377923 -0.42948,-0.447378 -1.12739,-0.447378 -0.68002,0 -1.12739,0.447378 -0.42949,0.447377 -0.64423,1.377923 -0.19684,0.91265 -0.19684,2.380048 0,1.467398 0.19684,2.415838 0.21474,0.930546 0.64423,1.395818 0.44737,0.447378 1.12739,0.447378 z"
           id="path1123"
           style="fill:#000080" /><path
           d="M 222.07229,22.820044 V 10.41874 h 2.5411 v 10.271787 h 3.77587 v 2.129517 z"
           id="path1125"
           style="fill:#000080" /><path
           d="m 235.92308,23.070575 q -1.4674,0 -2.52321,-0.751594 -1.03792,-0.76949 -1.59266,-2.218993 -0.53686,-1.449503 -0.53686,-3.507439 0,-1.538979 0.30422,-2.720055 0.32211,-1.198972 0.91265,-2.022147 0.60843,-0.823174 1.4674,-1.252656 0.85896,-0.429483 1.96846,-0.429483 1.48529,0 2.52321,0.769489 1.03791,0.751595 1.57477,2.201098 0.55475,1.431608 0.55475,3.489544 0,2.040041 -0.55475,3.489545 -0.53686,1.431607 -1.57477,2.201097 -1.03792,0.751594 -2.52321,0.751594 z m 0,-2.218992 q 0.69791,0 1.12739,-0.447378 0.42948,-0.447377 0.62633,-1.377923 0.21474,-0.930545 0.21474,-2.397943 0,-1.485293 -0.21474,-2.415838 -0.19685,-0.930546 -0.62633,-1.377923 -0.42948,-0.447378 -1.12739,-0.447378 -0.68001,0 -1.12739,0.447378 -0.42948,0.447377 -0.64423,1.377923 -0.19684,0.91265 -0.19684,2.380048 0,1.467398 0.19684,2.415838 0.21475,0.930546 0.64423,1.395818 0.44738,0.447378 1.12739,0.447378 z"
           id="path1127"
           style="fill:#000080" /><path
           d="m 250.31076,23.070575 q -1.61056,0 -2.70216,-0.733699 -1.0916,-0.733699 -1.64635,-2.165307 -0.55475,-1.449503 -0.55475,-3.57902 0,-2.147412 0.55475,-3.57902 0.57264,-1.431608 1.68214,-2.129517 1.12739,-0.715804 2.80953,-0.715804 0.51896,0 1.00212,0.07158 0.48317,0.07158 0.91265,0.214741 0.44738,0.143161 0.76949,0.340007 l -0.7337,2.129516 q -0.39369,-0.268426 -0.89475,-0.393692 -0.48317,-0.143161 -1.07371,-0.143161 -0.85896,0 -1.37792,0.411588 -0.51896,0.393692 -0.75159,1.324237 -0.21475,0.91265 -0.21475,2.469524 0,1.556874 0.21475,2.487419 0.23263,0.930545 0.75159,1.360027 0.51896,0.411588 1.36003,0.411588 0.0716,0 0.14316,0 0.0716,0 0.14316,-0.0179 v -4.563251 h 2.5411 v 6.299075 q -0.0537,0.05369 -0.84107,0.268427 -0.78738,0.232636 -2.09372,0.232636 z"
           id="path1129"
           style="fill:#000080" /><path
           d="m 259.9204,22.820044 v -4.670621 q -0.42948,-0.948441 -0.89475,-2.004252 -0.46527,-1.05581 -0.89476,-2.111621 -0.42948,-1.055811 -0.78738,-1.986356 -0.3579,-0.930546 -0.59054,-1.628454 h 2.72006 q 0.32211,1.198971 0.76949,2.558999 0.44737,1.360027 0.96633,2.73795 0.3579,-0.91265 0.66212,-1.8253 0.32211,-0.91265 0.59054,-1.78951 0.28632,-0.87686 0.50106,-1.682139 h 2.66637 q -0.23263,0.697908 -0.59054,1.628454 -0.3579,0.930545 -0.78738,1.986356 -0.42948,1.055811 -0.89476,2.111621 -0.46527,1.055811 -0.89475,2.004252 v 4.670621 z"
           id="path1131"
           style="fill:#000080" /></g><g
         aria-label="CIENCIA, TECNOLOGIA E INGENIERIA"
         transform="scale(0.95885799,1.0429073)"
         id="text1049"
         style="font-size:8.35785px;font-family:Ubuntu;-inkscape-font-specification:'Ubuntu, @wght=800';font-variation-settings:'wght' 800;fill:#000080;stroke-width:0.60042"><path
           d="m 55.458729,39.738909 q -0.752206,0 -1.270393,-0.342672 -0.509829,-0.342672 -0.768922,-1.0113 -0.259094,-0.676986 -0.259094,-1.67157 0,-0.752207 0.142084,-1.312183 0.142083,-0.568333 0.417892,-0.936079 0.284167,-0.376103 0.710418,-0.559976 0.42625,-0.19223 0.994584,-0.19223 0.242378,0 0.468039,0.03343 0.225662,0.03343 0.426251,0.100294 0.200588,0.06686 0.35103,0.158799 l -0.342672,0.994585 q -0.183873,-0.125368 -0.409535,-0.183873 -0.225662,-0.06686 -0.501471,-0.06686 -0.367745,0 -0.593407,0.192231 -0.217304,0.183872 -0.317599,0.618481 -0.09194,0.42625 -0.09194,1.153383 0,0.727133 0.11701,1.161741 0.11701,0.434608 0.376103,0.635197 0.259093,0.19223 0.685344,0.19223 0.259093,0 0.468039,-0.05015 0.217305,-0.05015 0.401177,-0.158799 l 0.309241,0.952795 q -0.23402,0.142083 -0.568334,0.217304 -0.334314,0.07522 -0.743849,0.07522 z"
           id="path1134"
           style="fill:#000080" /><path
           d="m 58.818591,39.621899 v -5.79199 h 1.186815 v 5.79199 z"
           id="path1136"
           style="fill:#000080" /><path
           d="m 61.459672,39.621899 v -5.79199 h 2.925247 v 0.994584 h -1.738433 v 1.278751 h 1.604708 v 0.961153 h -1.604708 v 1.562917 h 1.913948 v 0.994585 z"
           id="path1138"
           style="fill:#000080" /><path
           d="m 66.524536,39.621899 v -5.79199 h 0.961153 q 0.175514,0.292524 0.351029,0.610123 0.183873,0.30924 0.359388,0.635196 0.183872,0.325956 0.351029,0.66027 0.175515,0.325957 0.334314,0.651913 0.1588,0.325956 0.300883,0.643554 v -3.201056 h 1.111594 v 5.79199 h -0.952795 q -0.100294,-0.267452 -0.23402,-0.576692 -0.133725,-0.317598 -0.300882,-0.668628 -0.158799,-0.35103 -0.342672,-0.727133 -0.183873,-0.384461 -0.392819,-0.785638 -0.208946,-0.409535 -0.434608,-0.827427 v 3.585518 z"
           id="path1140"
           style="fill:#000080" /><path
           d="m 74.899106,39.738909 q -0.752207,0 -1.270394,-0.342672 -0.509829,-0.342672 -0.768922,-1.0113 -0.259093,-0.676986 -0.259093,-1.67157 0,-0.752207 0.142083,-1.312183 0.142084,-0.568333 0.417893,-0.936079 0.284167,-0.376103 0.710417,-0.559976 0.42625,-0.19223 0.994584,-0.19223 0.242378,0 0.46804,0.03343 0.225662,0.03343 0.42625,0.100294 0.200588,0.06686 0.35103,0.158799 l -0.342672,0.994585 q -0.183873,-0.125368 -0.409535,-0.183873 -0.225662,-0.06686 -0.501471,-0.06686 -0.367745,0 -0.593407,0.192231 -0.217304,0.183872 -0.317598,0.618481 -0.09194,0.42625 -0.09194,1.153383 0,0.727133 0.11701,1.161741 0.11701,0.434608 0.376103,0.635197 0.259094,0.19223 0.685344,0.19223 0.259093,0 0.46804,-0.05015 0.217304,-0.05015 0.401177,-0.158799 l 0.30924,0.952795 q -0.23402,0.142083 -0.568334,0.217304 -0.334314,0.07522 -0.743848,0.07522 z"
           id="path1142"
           style="fill:#000080" /><path
           d="m 78.258968,39.621899 v -5.79199 h 1.186815 v 5.79199 z"
           id="path1144"
           style="fill:#000080" /><path
           d="m 80.314999,39.621899 q 0.183873,-0.919364 0.417893,-1.872159 0.23402,-0.961153 0.509829,-1.947379 0.275809,-0.986226 0.576691,-1.972452 h 1.186815 q 0.225662,0.743848 0.434608,1.487697 0.217304,0.735491 0.409535,1.462624 0.19223,0.727133 0.359387,1.43755 0.167157,0.710417 0.300883,1.404119 h -1.236962 q -0.03343,-0.267452 -0.08358,-0.576692 -0.05015,-0.30924 -0.108652,-0.643554 H 81.71076 q -0.0585,0.334314 -0.108652,0.643554 -0.05015,0.300883 -0.09194,0.576692 z M 81.894633,37.4405 h 1.002942 q -0.0585,-0.284167 -0.11701,-0.576692 -0.0585,-0.292525 -0.125368,-0.585049 -0.0585,-0.292525 -0.125367,-0.58505 -0.05851,-0.292525 -0.125368,-0.576692 -0.06686,0.27581 -0.133726,0.568334 -0.06686,0.284167 -0.133725,0.576692 -0.0585,0.292525 -0.125368,0.593407 -0.05851,0.292525 -0.11701,0.58505 z"
           id="path1146"
           style="fill:#000080" /><path
           d="m 87.636474,40.934081 -0.835785,-0.23402 q 0.175514,-0.459681 0.250735,-0.927721 0.07522,-0.459682 0.07522,-0.844143 0,-0.07522 -0.0084,-0.175515 0,-0.108652 -0.0084,-0.208946 0,-0.100294 -0.0084,-0.150441 h 1.136668 q 0.01672,0.142083 0.01672,0.217304 0,0.07522 0,0.158799 0,0.518187 -0.158799,1.078163 -0.158799,0.568333 -0.459681,1.08652 z"
           id="path1148"
           style="fill:#000080" /><path
           d="m 91.932406,39.621899 v -4.797406 h -1.211888 v -0.994584 h 3.610591 v 0.994584 h -1.211888 v 4.797406 z"
           id="path1150"
           style="fill:#000080" /><path
           d="m 96.37043,39.621899 v -5.79199 h 2.925247 v 0.994584 h -1.738433 v 1.278751 h 1.604708 v 0.961153 h -1.604708 v 1.562917 h 1.913948 v 0.994585 z"
           id="path1152"
           style="fill:#000080" /><path
           d="m 103.49132,39.738909 q -0.7522,0 -1.27039,-0.342672 -0.50983,-0.342672 -0.76892,-1.0113 -0.2591,-0.676986 -0.2591,-1.67157 0,-0.752207 0.14209,-1.312183 0.14208,-0.568333 0.41789,-0.936079 0.28417,-0.376103 0.71042,-0.559976 0.42625,-0.19223 0.99458,-0.19223 0.24238,0 0.46804,0.03343 0.22566,0.03343 0.42625,0.100294 0.20059,0.06686 0.35103,0.158799 l -0.34267,0.994585 q -0.18387,-0.125368 -0.40954,-0.183873 -0.22566,-0.06686 -0.50147,-0.06686 -0.36774,0 -0.5934,0.192231 -0.21731,0.183872 -0.3176,0.618481 -0.0919,0.42625 -0.0919,1.153383 0,0.727133 0.11701,1.161741 0.11701,0.434608 0.3761,0.635197 0.2591,0.19223 0.68535,0.19223 0.25909,0 0.46804,-0.05015 0.2173,-0.05015 0.40117,-0.158799 l 0.30924,0.952795 q -0.23402,0.142083 -0.56833,0.217304 -0.33431,0.07522 -0.74385,0.07522 z"
           id="path1154"
           style="fill:#000080" /><path
           d="m 106.85118,39.621899 v -5.79199 h 0.96116 q 0.17551,0.292524 0.35103,0.610123 0.18387,0.30924 0.35938,0.635196 0.18388,0.325956 0.35103,0.66027 0.17552,0.325957 0.33432,0.651913 0.1588,0.325956 0.30088,0.643554 v -3.201056 h 1.11159 v 5.79199 h -0.95279 q -0.10029,-0.267452 -0.23402,-0.576692 -0.13373,-0.317598 -0.30088,-0.668628 -0.1588,-0.35103 -0.34267,-0.727133 -0.18388,-0.384461 -0.39282,-0.785638 -0.20895,-0.409535 -0.43461,-0.827427 v 3.585518 z"
           id="path1156"
           style="fill:#000080" /><path
           d="m 115.10039,39.738909 q -0.68535,0 -1.17846,-0.35103 -0.48476,-0.359388 -0.74385,-1.036374 -0.25073,-0.676985 -0.25073,-1.638138 0,-0.718775 0.14208,-1.270393 0.15044,-0.559976 0.42625,-0.944437 0.28417,-0.384462 0.68534,-0.58505 0.40118,-0.200588 0.91937,-0.200588 0.6937,0 1.17845,0.359387 0.48476,0.35103 0.73549,1.028016 0.2591,0.668628 0.2591,1.629781 0,0.952794 -0.2591,1.62978 -0.25073,0.668628 -0.73549,1.028016 -0.48475,0.35103 -1.17845,0.35103 z m 0,-1.036374 q 0.32595,0 0.52654,-0.208946 0.20059,-0.208946 0.29253,-0.643555 0.10029,-0.434608 0.10029,-1.119951 0,-0.693702 -0.10029,-1.12831 -0.0919,-0.434608 -0.29253,-0.643555 -0.20059,-0.208946 -0.52654,-0.208946 -0.3176,0 -0.52655,0.208946 -0.20059,0.208947 -0.30088,0.643555 -0.0919,0.42625 -0.0919,1.111594 0,0.685344 0.0919,1.12831 0.10029,0.434608 0.30088,0.651912 0.20895,0.208946 0.52655,0.208946 z"
           id="path1158"
           style="fill:#000080" /><path
           d="m 119.77243,39.621899 v -5.79199 h 1.18682 v 4.797405 h 1.7635 v 0.994585 z"
           id="path1160"
           style="fill:#000080" /><path
           d="m 126.2414,39.738909 q -0.68534,0 -1.17845,-0.35103 -0.48476,-0.359388 -0.74385,-1.036374 -0.25074,-0.676985 -0.25074,-1.638138 0,-0.718775 0.14209,-1.270393 0.15044,-0.559976 0.42625,-0.944437 0.28416,-0.384462 0.68534,-0.58505 0.40118,-0.200588 0.91936,-0.200588 0.69371,0 1.17846,0.359387 0.48476,0.35103 0.73549,1.028016 0.2591,0.668628 0.2591,1.629781 0,0.952794 -0.2591,1.62978 -0.25073,0.668628 -0.73549,1.028016 -0.48475,0.35103 -1.17846,0.35103 z m 0,-1.036374 q 0.32596,0 0.52655,-0.208946 0.20059,-0.208946 0.29252,-0.643555 0.1003,-0.434608 0.1003,-1.119951 0,-0.693702 -0.1003,-1.12831 -0.0919,-0.434608 -0.29252,-0.643555 -0.20059,-0.208946 -0.52655,-0.208946 -0.31759,0 -0.52654,0.208946 -0.20059,0.208947 -0.30088,0.643555 -0.0919,0.42625 -0.0919,1.111594 0,0.685344 0.0919,1.12831 0.10029,0.434608 0.30088,0.651912 0.20895,0.208946 0.52654,0.208946 z"
           id="path1162"
           style="fill:#000080" /><path
           d="m 132.96112,39.738909 q -0.75221,0 -1.26203,-0.342672 -0.50983,-0.342672 -0.76893,-1.0113 -0.25909,-0.676986 -0.25909,-1.67157 0,-1.002942 0.25909,-1.67157 0.26745,-0.668628 0.78564,-0.994584 0.52655,-0.334314 1.31218,-0.334314 0.24238,0 0.46804,0.03343 0.22567,0.03343 0.42625,0.100294 0.20895,0.06686 0.35939,0.158799 l -0.34267,0.994585 q -0.18387,-0.125368 -0.41789,-0.183873 -0.22566,-0.06686 -0.50147,-0.06686 -0.40118,0 -0.64356,0.192231 -0.24238,0.183872 -0.35103,0.618481 -0.10029,0.42625 -0.10029,1.153383 0,0.727133 0.10029,1.161741 0.10865,0.434608 0.35103,0.635197 0.24238,0.19223 0.6352,0.19223 0.0334,0 0.0669,0 0.0334,0 0.0669,-0.0084 v -2.131251 h 1.18682 v 2.941963 q -0.0251,0.02507 -0.39282,0.125368 -0.36775,0.108652 -0.97787,0.108652 z"
           id="path1164"
           style="fill:#000080" /><path
           d="m 136.78066,39.621899 v -5.79199 h 1.18681 v 5.79199 z"
           id="path1166"
           style="fill:#000080" /><path
           d="m 138.83669,39.621899 q 0.18387,-0.919364 0.41789,-1.872159 0.23402,-0.961153 0.50983,-1.947379 0.27581,-0.986226 0.57669,-1.972452 h 1.18682 q 0.22566,0.743848 0.43461,1.487697 0.2173,0.735491 0.40953,1.462624 0.19223,0.727133 0.35939,1.43755 0.16716,0.710417 0.30088,1.404119 h -1.23696 q -0.0334,-0.267452 -0.0836,-0.576692 -0.0502,-0.30924 -0.10865,-0.643554 h -1.37069 q -0.0585,0.334314 -0.10865,0.643554 -0.0502,0.300883 -0.0919,0.576692 z m 1.57964,-2.181399 h 1.00294 q -0.0585,-0.284167 -0.11701,-0.576692 -0.0585,-0.292525 -0.12537,-0.585049 -0.0585,-0.292525 -0.12537,-0.58505 -0.0585,-0.292525 -0.12537,-0.576692 -0.0669,0.27581 -0.13372,0.568334 -0.0669,0.284167 -0.13373,0.576692 -0.0585,0.292525 -0.12536,0.593407 -0.0585,0.292525 -0.11701,0.58505 z"
           id="path1168"
           style="fill:#000080" /><path
           d="m 147.45363,39.621899 v -5.79199 h 2.92525 v 0.994584 h -1.73843 v 1.278751 h 1.6047 v 0.961153 h -1.6047 v 1.562917 h 1.91394 v 0.994585 z"
           id="path1170"
           style="fill:#000080" /><path
           d="m 154.52438,39.621899 v -5.79199 h 1.18681 v 5.79199 z"
           id="path1172"
           style="fill:#000080" /><path
           d="m 157.16546,39.621899 v -5.79199 h 0.96115 q 0.17552,0.292524 0.35103,0.610123 0.18388,0.30924 0.35939,0.635196 0.18387,0.325956 0.35103,0.66027 0.17552,0.325957 0.33432,0.651913 0.15879,0.325956 0.30088,0.643554 v -3.201056 h 1.11159 v 5.79199 h -0.95279 q -0.1003,-0.267452 -0.23402,-0.576692 -0.13373,-0.317598 -0.30088,-0.668628 -0.1588,-0.35103 -0.34268,-0.727133 -0.18387,-0.384461 -0.39282,-0.785638 -0.20894,-0.409535 -0.4346,-0.827427 v 3.585518 z"
           id="path1174"
           style="fill:#000080" /><path
           d="m 165.53168,39.738909 q -0.75221,0 -1.26204,-0.342672 -0.50983,-0.342672 -0.76892,-1.0113 -0.25909,-0.676986 -0.25909,-1.67157 0,-1.002942 0.25909,-1.67157 0.26745,-0.668628 0.78564,-0.994584 0.52654,-0.334314 1.31218,-0.334314 0.24238,0 0.46804,0.03343 0.22566,0.03343 0.42625,0.100294 0.20895,0.06686 0.35939,0.158799 l -0.34267,0.994585 q -0.18388,-0.125368 -0.4179,-0.183873 -0.22566,-0.06686 -0.50147,-0.06686 -0.40117,0 -0.64355,0.192231 -0.24238,0.183872 -0.35103,0.618481 -0.1003,0.42625 -0.1003,1.153383 0,0.727133 0.1003,1.161741 0.10865,0.434608 0.35103,0.635197 0.24238,0.19223 0.63519,0.19223 0.0334,0 0.0669,0 0.0334,0 0.0669,-0.0084 v -2.131251 h 1.18682 v 2.941963 q -0.0251,0.02507 -0.39282,0.125368 -0.36775,0.108652 -0.97787,0.108652 z"
           id="path1176"
           style="fill:#000080" /><path
           d="m 169.35121,39.621899 v -5.79199 h 2.92524 v 0.994584 h -1.73843 v 1.278751 h 1.60471 v 0.961153 h -1.60471 v 1.562917 h 1.91395 v 0.994585 z"
           id="path1178"
           style="fill:#000080" /><path
           d="m 174.41607,39.621899 v -5.79199 h 0.96116 q 0.17551,0.292524 0.35102,0.610123 0.18388,0.30924 0.35939,0.635196 0.18388,0.325956 0.35103,0.66027 0.17552,0.325957 0.33432,0.651913 0.1588,0.325956 0.30088,0.643554 v -3.201056 h 1.11159 v 5.79199 h -0.95279 q -0.1003,-0.267452 -0.23402,-0.576692 -0.13373,-0.317598 -0.30088,-0.668628 -0.1588,-0.35103 -0.34268,-0.727133 -0.18387,-0.384461 -0.39282,-0.785638 -0.20894,-0.409535 -0.4346,-0.827427 v 3.585518 z"
           id="path1180"
           style="fill:#000080" /><path
           d="m 180.73461,39.621899 v -5.79199 h 1.18682 v 5.79199 z"
           id="path1182"
           style="fill:#000080" /><path
           d="m 183.37569,39.621899 v -5.79199 h 2.92525 v 0.994584 h -1.73844 v 1.278751 h 1.60471 v 0.961153 h -1.60471 v 1.562917 h 1.91395 v 0.994585 z"
           id="path1184"
           style="fill:#000080" /><path
           d="m 188.44056,39.621899 v -5.700054 q 0.31759,-0.08358 0.64355,-0.125368 0.33431,-0.05015 0.72713,-0.05015 1.01966,0 1.5462,0.476398 0.52655,0.468039 0.52655,1.39576 0,0.459682 -0.18387,0.852501 -0.18388,0.392819 -0.55162,0.710417 0.16716,0.275809 0.3176,0.576692 0.15044,0.300883 0.28416,0.618481 0.14209,0.30924 0.25074,0.626839 0.10865,0.317598 0.18387,0.618481 h -1.18681 q -0.12537,-0.409535 -0.27581,-0.793996 -0.15044,-0.392819 -0.30924,-0.735491 -0.1588,-0.342672 -0.32596,-0.601765 -0.0334,0 -0.13372,0 -0.0919,0 -0.17552,0 h -0.15044 v 2.131252 z m 1.18681,-3.084047 h 0.20059 q 0.27581,0 0.45132,-0.100294 0.18387,-0.108652 0.27581,-0.309241 0.0919,-0.208946 0.0919,-0.509829 0,-0.284166 -0.0919,-0.468039 -0.0836,-0.192231 -0.25909,-0.284167 -0.16716,-0.100294 -0.43461,-0.100294 -0.0585,0 -0.12537,0.0084 -0.0669,0.0084 -0.10865,0.02507 z"
           id="path1186"
           style="fill:#000080" /><path
           d="m 194.01525,39.621899 v -5.79199 h 1.18681 v 5.79199 z"
           id="path1188"
           style="fill:#000080" /><path
           d="m 196.07128,39.621899 q 0.18387,-0.919364 0.41789,-1.872159 0.23402,-0.961153 0.50983,-1.947379 0.27581,-0.986226 0.57669,-1.972452 h 1.18682 q 0.22566,0.743848 0.43461,1.487697 0.2173,0.735491 0.40953,1.462624 0.19223,0.727133 0.35939,1.43755 0.16716,0.710417 0.30088,1.404119 h -1.23696 q -0.0334,-0.267452 -0.0836,-0.576692 -0.0502,-0.30924 -0.10865,-0.643554 h -1.37069 q -0.0585,0.334314 -0.10865,0.643554 -0.0502,0.300883 -0.0919,0.576692 z m 1.57963,-2.181399 h 1.00295 q -0.0585,-0.284167 -0.11701,-0.576692 -0.0585,-0.292525 -0.12537,-0.585049 -0.0585,-0.292525 -0.12537,-0.58505 -0.0585,-0.292525 -0.12537,-0.576692 -0.0669,0.27581 -0.13372,0.568334 -0.0669,0.284167 -0.13373,0.576692 -0.0585,0.292525 -0.12537,0.593407 -0.0585,0.292525 -0.11701,0.58505 z"
           id="path1190"
           style="fill:#000080" /></g></g></g></svg>
